{"title":"The Vow DvdRip { BLOVES } ","uid":7180343,"size":459878529,"categoryP":"video","categoryS":"movies","magnet":"?xt=urn:btih:b08c01b374311c332e82bcb781781ee1c59925fd&amp;dn=The+Vow+DvdRip+%7B+BLOVES+%7D+&amp;tr=udp%3A%2F%2Ftracker.openbittorrent.com%3A80&amp;tr=udp%3A%2F%2Fopen.demonii.com%3A1337&amp;tr=udp%3A%2F%2Ftracker.coppersurfer.tk%3A6969&amp;tr=udp%3A%2F%2Fexodus.desync.com%3A6969","seeders":1,"leechers":0,"uploader":"BLOVES","files":15,"time":1334244175,"description":" &lt;a href=&quot;http://www.imdb.com/title/tt1606389/&quot; rel=&quot;nofollow&quot; target=&quot;_NEW&quot;&gt;http://www.imdb.com/title/tt1606389/&lt;/a&gt;\n[img]http://moviecax.com/BigStoreOfMovieCax/HollyWood%202012/March2012/The%20Vow/Wallpaper/Main.jpg[/img]\n\n[i][b]General [/b][/i]\n[i]Complete name :The Vow DvdRip { BLOVES } \nFormat : MPEG-4 \nFormat profile : Base Media \nCodec ID : isom \nFile size : 427 MiB \nDuration : 1h 39mn \nOverall bit rate mode : Variable \nOverall bit rate : 597 Kbps \n\nVideo \nID : 1 \nFormat : AVC \nFormat/Info : Advanced Video Codec \nFormat profile : &lt;a class=&quot;__cf_email__&quot; href=&quot;/cdn-cgi/l/email-protection&quot; data-cfemail=&quot;b5f7d4c6d0d9dcdbd0f5f9869b85&quot;&gt;[email&amp;#160;protected]&lt;/a&gt;&lt;script cf-hash='f9e31' type=&quot;text/javascript&quot;&gt;\n/* &lt;![CDATA[ */!function(){try{var t=&quot;currentScript&quot;in document?document.currentScript:function(){for(var t=document.getElementsByTagName(&quot;script&quot;),e=t.length;e--;)if(t[e].getAttribute(&quot;cf-hash&quot;))return t[e]}();if(t&amp;&amp;t.previousSibling){var e,r,n,i,c=t.previousSibling,a=c.getAttribute(&quot;data-cfemail&quot;);if(a){for(e=&quot;&quot;,r=parseInt(a.substr(0,2),16),n=2;a.length-n;n+=2)i=parseInt(a.substr(n,2),16)^r,e+=String.fromCharCode(i);e=document.createTextNode(e),c.parentNode.replaceChild(e,c)}}}catch(u){}}();/* ]]&gt; */&lt;/script&gt; \nFormat settings, CABAC : No \nFormat settings, ReFrames : 3 frames \nCodec ID : avc1 \nCodec ID/Info : Advanced Video Coding \nDuration : 1h 39mn \nBit rate : 467 Kbps \nMaximum bit rate : 2 674 Kbps \nWidth : 640 pixels \nHeight : 266 pixels \nDisplay aspect ratio : 2.40:1 \nFrame rate mode : Constant \nFrame rate : 25.000 fps \nColor space : YUV \nChroma subsampling : 4:2:0 \nBit depth : 8 bits \nScan type : Progressive \nBits/(Pixel*Frame) : 0.110 \nStream size : 334 MiB (78%) \n\nAudio \nID : 2 \nFormat : AAC \nFormat/Info : Advanced Audio Codec \nFormat profile : LC \nCodec ID : 40 \nDuration : 1h 39mn \nBit rate mode : Variable \nBit rate : 128 Kbps \nMaximum bit rate : 152 Kbps \nChannel(s) : 2 channels \nChannel positions : Front: L R \nSampling rate : 44.1 KHz \nCompression mode : Lossy \nStream size : 91.1 MiB (21%) [/i]","torrent":{"xt":"urn:btih:b08c01b374311c332e82bcb781781ee1c59925fd","amp;dn":"The+Vow+DvdRip+%7B+BLOVES+%7D+","amp;tr":["udp%3A%2F%2Ftracker.openbittorrent.com%3A80","udp%3A%2F%2Fopen.demonii.com%3A1337","udp%3A%2F%2Ftracker.coppersurfer.tk%3A6969","udp%3A%2F%2Fexodus.desync.com%3A6969"],"infoHash":"b08c01b374311c332e82bcb781781ee1c59925fd","infoHashBuffer":{"type":"Buffer","data":[176,140,1,179,116,49,28,51,46,130,188,183,129,120,30,225,197,153,37,253]},"announce":[],"urlList":[]}}